<mxfile host="app.diagrams.net" modified="2024-05-27T08:10:12.190Z" agent="Mozilla/5.0 (Windows NT 10.0; Win64; x64) AppleWebKit/537.36 (KHTML, like Gecko) Chrome/123.0.0.0 Safari/537.36 OPR/109.0.0.0" version="24.4.8" etag="kUmMHDyb6i5xOCKrnOT6" type="github">
  <diagram name="Page-1" id="Gdl9zgYBXKvluh8yQkrO">
    <mxGraphModel>
      <root>
        <mxCell id="0" />
        <mxCell id="1" parent="0" />
      </root>
    </mxGraphModel>
  </diagram>
</mxfile>
